<svg xmlns="http://www.w3.org/2000/svg" viewBox="0 0 264 264"><defs><style>.cls-1{fill:#213461;stroke:#213460;}.cls-1,.cls-2{stroke-miterlimit:10;stroke-width:3px;}.cls-2{fill:#cd2b25;stroke:#ce2b25;}</style></defs><title>100del</title><g id="Слой_2" data-name="Слой 2"><g id="Слой_1-2" data-name="Слой 1"><path class="cls-1" d="M132,1.5C60,1.5,1.5,60,1.5,132S60,262.5,132,262.5,262.5,204,262.5,132,204,1.5,132,1.5Zm0,250.95A120.45,120.45,0,1,1,252.45,132,120.59,120.59,0,0,1,132,252.45Zm0,0"/><path class="cls-2" d="M193.49,78.48l-77.15,86.78L69.87,128.08a5,5,0,1,0-6.27,7.84l50.19,40.14a5.07,5.07,0,0,0,3.14,1.1,5,5,0,0,0,3.78-1.69L201,85.14a5,5,0,1,0-7.5-6.66Zm0,0"/></g></g></svg>