<svg xmlns="http://www.w3.org/2000/svg" viewBox="0 0 156.69 222.62"><defs><style>.cls-1{fill:#213461;}.cls-2{fill:#cd2b25;}</style></defs><title>3_1</title><g id="Слой_2" data-name="Слой 2"><g id="Слой_1-2" data-name="Слой 1"><path class="cls-1" d="M155.89,134.13c.58-7.44-1.28-13.8-5.54-18.88-5.47-6.56-13.42-9.14-18.29-10.15-4.81-10.73-12.75-13-18.66-13a25.78,25.78,0,0,0-7.9,1.31c-5.12-7.88-11.77-9.58-16.56-9.58a25.23,25.23,0,0,0-9.33,2c-.89-7.59-2-20.65-2.7-29.63-.67-8.09-1.36-16.45-2-22.78l-.13-1.28s-2.23-21-17.31-20.69S43.91,35.06,43.91,35.06c-.12,51.82-1.75,68.4-1.77,68.55a5.63,5.63,0,0,0,0,.58c0,6.32-.13,10.58-.35,13.45-.31-.4-.62-.81-.91-1.21C35.09,108.81,27.21,98.38,16,98.38a17.85,17.85,0,0,0-5.87,1,12.65,12.65,0,0,0-9.21,8c-5.78,15.26,16.26,47.56,20.91,54.11C33,180.79,58.42,205.19,61.3,207.93l.07.07c3.7,3.16,4,5,4,5.31a.79.79,0,0,1,0,.32,5.2,5.2,0,0,0,3.64,8.89l67.75.1a5.16,5.16,0,0,0,5-3.65l3.58-11.54C160.09,178.63,156.46,139.43,155.89,134.13ZM135.8,203a5,5,0,0,0-.35.86l-2.59,8.32-57.21-.08c-.42-4-2.89-8-7.38-11.89-1.12-1.07-27.16-26-37.59-44.27l-.23-.34C18.92,139.49,8.07,117.84,10.65,111c.18-.48.46-1.2,2.19-1.6l.59-.18a7.6,7.6,0,0,1,2.59-.49c6,0,12.08,8.06,16.52,13.94,4.06,5.37,7,9.25,11.33,9.25a6.55,6.55,0,0,0,4.71-2c2.64-2.65,4-7.34,3.9-25.54.22-2.37,1.8-20.77,1.8-75.49.76-7.92,3.32-10,3.89-10,1.63,0,3.64,2.31,4.88,5.62l.09.23a5.27,5.27,0,0,1,.31,1,50.13,50.13,0,0,1,.74,5,5.24,5.24,0,0,0,.08.8c.68,6.1,1.46,15.55,2.16,23.89L66.55,57C69.87,97.31,70,97.36,74.44,98.67a5.21,5.21,0,0,0,4.63-.85s4.91-3.63,9.85-3.63c2.56,0,6.32.82,9.5,7.91a5.21,5.21,0,0,0,7.32,2.39,17.78,17.78,0,0,1,7.65-2c3,0,7.23.93,10,9a5.19,5.19,0,0,0,4.43,3.48c.1,0,9.6,1,14.57,7,2.5,3,3.54,7,3.09,11.8a5.65,5.65,0,0,0,0,1.09v0C145.56,135.25,150.15,175.68,135.8,203Z"/><path class="cls-2" d="M78.47,20.48a20.22,20.22,0,0,1-3.69,11.6s-2.23-21-17.31-20.69S43.91,35.06,43.91,35.06a5,5,0,0,1-1.23-1A20.47,20.47,0,1,1,78.47,20.48Z"/></g></g></svg>