<svg xmlns="http://www.w3.org/2000/svg" viewBox="0 0 245.94 232.87"><defs><style>.cls-1{fill:#213461;stroke:#213460;}.cls-1,.cls-2{stroke-miterlimit:10;stroke-width:2px;}.cls-2{fill:#cd2b25;stroke:#ce2b25;}</style></defs><title>3_2</title><g id="Слой_2" data-name="Слой 2"><g id="Слой_1-2" data-name="Слой 1"><path class="cls-1" d="M210.09,88.34a87.12,87.12,0,1,0-174.24-.22v.22A37,37,0,0,0,1,125.15v4.35a37,37,0,0,0,37,37h2l15.46,24.61a58.26,58.26,0,0,0,49.88,27.66h3a17.42,17.42,0,1,0,0-8.71h-3a49.7,49.7,0,0,1-42.47-23.74L50.22,166.53h3A8.74,8.74,0,0,0,62,157.82v-61a8.74,8.74,0,0,0-8.71-8.71H44.56a78.41,78.41,0,1,1,156.82,0h-8.71A8.74,8.74,0,0,0,184,96.83v61a8.74,8.74,0,0,0,8.71,8.71h15.24a37,37,0,0,0,37-37v-4.35a37,37,0,0,0-34.85-36.81ZM125.15,205.73a8.71,8.71,0,1,1-8.71,8.71,8.74,8.74,0,0,1,8.71-8.71ZM53.27,96.83v61H38A28.26,28.26,0,0,1,9.71,129.5v-4.35A28.26,28.26,0,0,1,38,96.83Zm183,32.67a28.26,28.26,0,0,1-28.32,28.32H192.67v-61h15.24a28.26,28.26,0,0,1,28.32,28.32Zm0,0"/><path class="cls-2" d="M123,22.78a63.07,63.07,0,0,0-47.92,22,4.41,4.41,0,0,0,.44,6.1A4.58,4.58,0,0,0,78.32,52a3.91,3.91,0,0,0,3.26-1.53A55,55,0,0,1,123,31.49a54,54,0,0,1,11.76,1.31A4.62,4.62,0,0,0,140,29.53c.65-2.18-1.09-4.57-3.27-5.23A58.81,58.81,0,0,0,123,22.78Zm0,0"/></g></g></svg>