<svg xmlns="http://www.w3.org/2000/svg" viewBox="0 0 186.79 233"><defs><style>.cls-1{fill:#213461;stroke:#213460;}.cls-1,.cls-2{stroke-miterlimit:10;stroke-width:2px;}.cls-2{fill:#cd2b25;stroke:#ce2b25;}</style></defs><title>3_3</title><g id="Слой_2" data-name="Слой 2"><g id="Слой_1-2" data-name="Слой 1"><path class="cls-1" d="M184.66,225.42,174.25,215V80.26L155,61V1H1V201.21H20.25v19.25H168.8l10.43,10.41a3.84,3.84,0,0,0,5.43,0,3.86,3.86,0,0,0,0-5.45ZM161.11,78H116.5V33.39ZM8.69,193.5V8.71h138.6V53.3l-33-33h-94V193.5Zm19.25,19.25V28h80.85V85.71h57.75V207.3l-28.93-28.91a45.68,45.68,0,1,0-5.43,5.43l28.93,28.93Zm74.9-25.87A37.84,37.84,0,1,1,140.67,149a37.88,37.88,0,0,1-37.84,37.84Zm0,0"/><path class="cls-2" d="M80.41,139.6h23.1a3.85,3.85,0,0,0,0-7.71H80.41a3.85,3.85,0,1,0,0,7.71Zm0,0"/><path class="cls-2" d="M126.59,155H80.41a3.85,3.85,0,1,0,0,7.71h46.19a3.85,3.85,0,0,0,0-7.71Zm0,0"/></g></g></svg>