<svg xmlns="http://www.w3.org/2000/svg" viewBox="0 0 250.55 113.59"><defs><style>.cls-1{fill:#213461;}.cls-2{fill:#cd2b25;}</style></defs><title>3_4</title><g id="Слой_2" data-name="Слой 2"><g id="Слой_1-2" data-name="Слой 1"><path class="cls-1" d="M245.56,0H83.83a5,5,0,0,0-5,5V108.6a5,5,0,0,0,5,5H245.56a5,5,0,0,0,5-5V5A5,5,0,0,0,245.56,0ZM233.25,10,164.7,66.25,96.47,10Zm7.32,93.63H88.82v-87l72.7,60a5,5,0,0,0,6.34,0l72.71-59.68Z"/><path class="cls-2" d="M58.56,51.3H5a5,5,0,1,0,0,10H58.56a5,5,0,0,0,0-10Z"/><path class="cls-2" d="M78.84,14.4v10H31.27a5,5,0,0,1,0-10Z"/><path class="cls-2" d="M50.41,89.2H78.84v10H50.41a5,5,0,1,1,0-10Z"/></g></g></svg>