<svg xmlns="http://www.w3.org/2000/svg" viewBox="0 0 197.41 197.41"><defs><style>.cls-1{fill:#213461;}.cls-2{fill:#cd2b25;}</style></defs><title>3_5</title><g id="Слой_2" data-name="Слой 2"><g id="Слой_1-2" data-name="Слой 1"><path class="cls-1" d="M184.75,147.29a13.07,13.07,0,0,0-2-6.9s0,0,0,0c-.19-.31-.4-.61-.62-.9-1.41-2.6-7.72-5-7.72-5a12.94,12.94,0,0,0-2.81-.31h-.12a13.12,13.12,0,0,0-11.94-18.51H86.76l-3.34-12.42h0l-8.89-3.15L58.13,116.48a11.56,11.56,0,0,0-9.55-5h-37A11.58,11.58,0,0,0,0,123v62.85a11.58,11.58,0,0,0,11.57,11.56h37a11.58,11.58,0,0,0,11.23-8.78l4.58,4a19.47,19.47,0,0,0,12.77,4.78h67.42c10.16,0,17.6-7.71,17.6-7.71a13,13,0,0,0,0-10.79h1.22a13.11,13.11,0,0,0,11.71-19A13.13,13.13,0,0,0,184.75,147.29ZM52.44,185.85a3.86,3.86,0,0,1-3.86,3.85h-37a3.86,3.86,0,0,1-3.86-3.85V123a3.86,3.86,0,0,1,3.86-3.86H26.22v44.42a3.86,3.86,0,1,0,7.71,0V119.14H48.58A3.86,3.86,0,0,1,52.44,123Zm119.21-33.16H120.73a3.85,3.85,0,0,0,0,7.71H163.4a5.4,5.4,0,0,1,0,10.8H120.73a3.86,3.86,0,0,0,0,7.71h29.51a5.39,5.39,0,1,1,0,10.79H77.16a11.73,11.73,0,0,1-7.7-2.88l-9.31-8.13V125.37L77,108.53l3,12a3.86,3.86,0,0,0,3.74,2.9h75.81a5.4,5.4,0,0,1,0,10.8H120.73a3.85,3.85,0,0,0,0,7.71h50.92a5.4,5.4,0,0,1,0,10.8Z"/><path class="cls-2" d="M182.17,38.92V139.48c-1.41-2.6-7.72-5-7.72-5V42.36a18.16,18.16,0,0,1-13.82-13.83h-29A18.16,18.16,0,0,1,117.8,42.36v73.31h-7.71V38.92a3.86,3.86,0,0,1,3.86-3.86,10.4,10.4,0,0,0,10.38-10.38,3.86,3.86,0,0,1,3.86-3.86h35.88a3.86,3.86,0,0,1,3.86,3.86,10.39,10.39,0,0,0,10.38,10.38A3.86,3.86,0,0,1,182.17,38.92Z"/><path class="cls-1" d="M182.79,140.39a4.76,4.76,0,0,1-.62-.91C182.39,139.77,182.6,140.08,182.79,140.39Z"/><path class="cls-2" d="M197.41,3.85V193.56a3.85,3.85,0,0,1-3.86,3.85h-49c10.16,0,17.6-7.71,17.6-7.71H189.7V7.71H102.56v108H94.85V22.87L64,31.13l19.4,72.12h0l-8.89-3.15-19-70.69a3.85,3.85,0,0,1,2.73-4.72l36.55-9.79v-11A3.85,3.85,0,0,1,98.7,0h94.85a3.86,3.86,0,0,1,2.73,1.13A3.81,3.81,0,0,1,197.41,3.85Z"/><path class="cls-1" d="M182.79,140.38a4.53,4.53,0,0,1-.62-.9C182.39,139.77,182.6,140.07,182.79,140.38Z"/></g></g></svg>