<svg xmlns="http://www.w3.org/2000/svg" viewBox="0 0 250.79 199.64"><defs><style>.cls-1{fill:#213461;}.cls-2{fill:#cd2b25;}</style></defs><title>3_6</title><g id="Слой_2" data-name="Слой 2"><g id="Слой_1-2" data-name="Слой 1"><path class="cls-1" d="M231.95,102.31a18.46,18.46,0,0,0-7.59,1.69,18.61,18.61,0,0,0-23.27-5.2l-.26.14-7.7,4.57a18.59,18.59,0,0,0-22.87-4.71L170,99,140.47,117c-6.66-2-14-4.12-21.19-6.15-7.54-2.14-14.78-4.13-20.59-5.59-2.91-.73-5.45-1.33-7.53-1.77-1-.21-2-.39-2.79-.51a15.38,15.38,0,0,0-2.31-.21,13.83,13.83,0,0,0-1.73.13c-2.17.28-5.26.95-8.9,1.8C68,106.48,58.49,109,53.24,110.45v-8.88A11.24,11.24,0,0,0,42,90.36H11.21A11.24,11.24,0,0,0,0,101.57v86.86a11.24,11.24,0,0,0,11.21,11.21H42a11.24,11.24,0,0,0,11.21-11.21v-6.74c6.65,1.45,21.42,4.64,37,7.83,10.53,2.16,21.41,4.32,30.39,6,4.49.82,8.51,1.5,11.81,2a60.79,60.79,0,0,0,7.68.79,16.45,16.45,0,0,0,4.36-.7,60.33,60.33,0,0,0,9.61-3.89c12.67-6.17,30.86-17.74,48-29.19s33.16-22.73,41-28.14a18.28,18.28,0,0,0,7.68-15.17,18.85,18.85,0,0,0-18.84-18.84ZM44.83,188.43a2.84,2.84,0,0,1-2.8,2.8H11.21a2.84,2.84,0,0,1-2.8-2.8V101.57a2.84,2.84,0,0,1,2.8-2.8H42a2.84,2.84,0,0,1,2.8,2.8Zm193.51-59c-9.65,6.65-31.26,21.91-52.17,35.49C175.72,171.68,165.44,178,157,182.65a119.14,119.14,0,0,1-11,5.41,34.67,34.67,0,0,1-3.85,1.38,8.69,8.69,0,0,1-2.1.39,55.55,55.55,0,0,1-6.46-.7c-11-1.62-31.7-5.74-49.5-9.46-8.9-1.86-17.11-3.61-23.08-4.9l-7.82-1.7V119.17l3.19-.87c4.43-1.2,11.19-3,17.26-4.5,3-.75,5.89-1.42,8.16-1.89,1.13-.23,2.12-.42,2.88-.54a11.06,11.06,0,0,1,1.33-.16,10.18,10.18,0,0,1,1.05.12c2.32.35,7.07,1.46,12.87,3,17.45,4.56,45,12.8,56.09,16.18a25.11,25.11,0,0,1,9.61,5,11.13,11.13,0,0,1,2.59,3.42,9.56,9.56,0,0,1,.91,4.19A11.89,11.89,0,0,1,157.4,155l-10.85-1.06-37-4.75a4.2,4.2,0,1,0-1.07,8.34l37.14,4.77,11.49,1.12h.21a20.31,20.31,0,0,0,20.31-20.3,18,18,0,0,0-1.73-7.8,21.09,21.09,0,0,0-7.38-8.27,36.7,36.7,0,0,0-10-4.61l-7.21-2.18,22.81-14a10.13,10.13,0,0,1,11.62,1.61l-11.27,6.68a4.2,4.2,0,0,0,4.29,7.23l26.16-15.51a10.26,10.26,0,0,1,4.62-1.15,10.36,10.36,0,0,1,7.4,3.12l-30.46,18.07a4.2,4.2,0,1,0,4.29,7.23L223.71,114a4,4,0,0,0,2.6-1.55l1-.61a10.25,10.25,0,0,1,4.62-1.15,10.44,10.44,0,0,1,10.43,10.44,10,10,0,0,1-4.05,8.25Zm0,0"/><path class="cls-2" d="M146.44,40.87c6.92,0,12.46-1.86,16.45-5.52s6-8.68,6-15S166.79,9,162.66,5.45,152.6,0,145.13,0H120.57V33.29H110.36v7.56h10.21V51.29H110.36v7.56h10.21V72h8.62V58.85h18.69V51.29H129.19V40.87ZM129.19,7.5h14.06c5.21,0,9.21,1.08,11.9,3.22s4.16,5.48,4.16,9.78c0,4.52-1.38,7.84-4.11,9.86s-7,3-13,3h-13Z"/></g></g></svg>