<svg xmlns="http://www.w3.org/2000/svg" viewBox="0 0 268.93 268.95"><defs><style>.cls-1{fill:#213461;}.cls-2{fill:#cd2b25;}</style></defs><title>5let</title><g id="Слой_2" data-name="Слой 2"><g id="Слой_1-2" data-name="Слой 1"><path class="cls-1" d="M268.5,166.4l-12.27-31.93,12.25-32a6.48,6.48,0,0,0-2-7.41L239.92,73.58l-5.37-33.8a6.5,6.5,0,0,0-5.42-5.42L195.34,29,173.8,2.41a6.54,6.54,0,0,0-7.42-2L134.46,12.7,102.51.45a6.48,6.48,0,0,0-7.4,2L73.58,29l-33.8,5.37a6.52,6.52,0,0,0-5.42,5.42L29,73.59,2.41,95.12a6.54,6.54,0,0,0-2,7.41l12.25,31.94L.43,166.42a6.52,6.52,0,0,0,2,7.4L29,195.35l5.37,33.8a6.54,6.54,0,0,0,5.42,5.42l33.8,5.37,21.53,26.57a6.46,6.46,0,0,0,7.4,2l32-12.25,32,12.25a6.59,6.59,0,0,0,2.33.43,6.48,6.48,0,0,0,5.08-2.42l21.53-26.57,33.8-5.37a6.54,6.54,0,0,0,5.42-5.42l5.37-33.8,26.58-21.53A6.55,6.55,0,0,0,268.5,166.4Zm-25.38-29.59,11.45,29.84-24.85,20.12a6.54,6.54,0,0,0-2.34,4l-5,31.58-31.57,5a6.51,6.51,0,0,0-4,2.34L166.65,254.6l-29.84-11.45a6.61,6.61,0,0,0-4.68,0L102.28,254.6,82.16,229.75a6.51,6.51,0,0,0-4-2.34l-31.58-5-5-31.57a6.51,6.51,0,0,0-2.34-4l-24.86-20.1,11.46-29.84a6.51,6.51,0,0,0,0-4.68L14.33,102.28,39.18,82.15a6.48,6.48,0,0,0,2.34-4l5-31.57,31.57-5a6.53,6.53,0,0,0,4.05-2.34l20.1-24.84L132.1,25.79a6.48,6.48,0,0,0,4.67,0l29.85-11.45L186.74,39.2a6.5,6.5,0,0,0,4,2.33l31.58,5,5,31.58a6.56,6.56,0,0,0,2.34,4l24.85,20.11-11.45,29.85A6.48,6.48,0,0,0,243.12,136.81Z"/><path class="cls-2" d="M82.48,161.75A27.61,27.61,0,0,0,104,172.31c11.54,0,21.41-7.92,21.41-19.88s-9.59-20.16-22.24-20.16a31.12,31.12,0,0,0-16.54,4.87l-8.06-2.92,4.87-48.65h49.63v12H95.41l-2.22,20.71a30,30,0,0,1-.83,5h.28a32.76,32.76,0,0,1,12.79-2.92c20.71,0,34.2,14.32,34.2,32.11,0,18.77-15,32.94-34.75,32.94-11.54,0-22.8-4.73-30.16-13.62Z"/><path class="cls-2" d="M152.08,124.52h18.72V104.16h12.42v20.36h18.72v11.87H183.21v20.27H170.79V136.39H152.08Z"/></g></g></svg>