<svg xmlns="http://www.w3.org/2000/svg" viewBox="0 0 255.37 255.95"><defs><style>.cls-1{fill:#213461;}.cls-2{fill:#cd2b25;}</style></defs><title>80client</title><g id="Слой_2" data-name="Слой 2"><g id="Слой_1-2" data-name="Слой 1"><path class="cls-1" d="M200.36,133.94a36,36,0,1,1,36-36,36,36,0,0,1-36,36Zm0-60.4a25.07,25.07,0,1,0,25.07,25.07,25,25,0,0,0-25.07-25.07Zm0,0"/><path class="cls-1" d="M233.55,255.95H167.13V221.09H145.88V173.2c0-19.05,12-34.28,26.69-34.28h56.11c14.71,0,26.69,15.23,26.69,34.28v47.89H234.12v34.86Zm-56.06-10.88h45.17V210.2h21.25V172.62c0-12.51-7.07-23.4-15.81-23.4H172.57c-8.69,0-15.81,10.89-15.81,23.4V210.2H178v34.86Zm0,0"/><path class="cls-1" d="M54.43,133.94c-19.57,0-36-15.81-36-35.38a36,36,0,1,1,36,35.38Zm0-60.4A24.68,24.68,0,0,0,29.36,98.61a25,25,0,0,0,25.07,25.07,25.07,25.07,0,1,0,0-50.14Zm0,0"/><path class="cls-1" d="M87.62,255.95H21.2V221.09H0V173.2c0-19.05,12-34.28,26.69-34.28H82.75c14.71,0,26.69,15.23,26.69,34.28v47.89H88.2v34.86ZM31.56,245.06H76.73V210.2H98V172.62c0-12.51-7.07-23.4-15.81-23.4H26.12c-8.69,0-15.81,10.89-15.81,23.4V210.2H31.56Zm0,0"/><path class="cls-2" d="M96.88,71.92V58.31H93.06a5.47,5.47,0,0,1-5.44-5.44V5.44A5.47,5.47,0,0,1,93.06,0H172a5.47,5.47,0,0,1,5.44,5.44V53.34A5.47,5.47,0,0,1,172,58.78H123L105.57,76.21a5.29,5.29,0,0,1-8.69-4.29Zm1.62-24h3.82a5.47,5.47,0,0,1,5.44,5.44v6l9.79-9.79a5,5,0,0,1,3.82-1.62h45.75V10.89H98.5Zm0,0"/></g></g></svg>