<svg xmlns="http://www.w3.org/2000/svg" viewBox="0 0 388.17 291.13"><defs><style>.cls-1{fill:#213461;}</style></defs><title>email_icon2</title><g id="Слой_2" data-name="Слой 2"><g id="Режим_изоляции" data-name="Режим изоляции"><path class="cls-1" d="M388.17,242.61a48.12,48.12,0,0,1-6.23,23.34L259.38,128.82,380.61,22.75a48.16,48.16,0,0,1,7.55,25.77ZM194.09,153.71,362.77,6.11A47.91,47.91,0,0,0,339.65,0H48.52A47.75,47.75,0,0,0,25.41,6.11Zm47-8.93-39,34.19a12.16,12.16,0,0,1-16,0L147,144.79,22.93,283.66a47.92,47.92,0,0,0,25.59,7.46H339.65a47.93,47.93,0,0,0,25.59-7.46ZM7.56,22.75A48.17,48.17,0,0,0,0,48.52V242.61a48,48,0,0,0,6.23,23.34L128.78,128.79Zm0,0"/></g></g></svg>