<svg xmlns="http://www.w3.org/2000/svg" viewBox="0 0 72.75 72.75"><defs><style>.cls-1{fill:#fff;}.cls-2{fill:none;opacity:0.19;}.cls-2,.cls-3{stroke:#213460;}.cls-2,.cls-3,.cls-4{stroke-miterlimit:10;}.cls-3{fill:#213461;}.cls-3,.cls-4{stroke-width:0.5px;}.cls-4{fill:#cd2b25;stroke:#cd2b25;}</style></defs><title>1</title><g id="Слой_2" data-name="Слой 2"><g id="Слой_1-2" data-name="Слой 1"><circle class="cls-1" cx="36.38" cy="36.38" r="36.38"/><circle class="cls-2" cx="36.38" cy="36.38" r="33.13"/><path class="cls-3" d="M49.83,27.78,40,18a.73.73,0,0,0-.52-.22H25.74a3,3,0,0,0-3,3V51.93a3,3,0,0,0,3,3H47a3,3,0,0,0,3-3V28.3A.73.73,0,0,0,49.83,27.78Zm-9.57-7.49,7.27,7.27H41.83A1.57,1.57,0,0,1,40.26,26V20.29ZM47,53.5H25.74a1.57,1.57,0,0,1-1.57-1.57V20.82a1.57,1.57,0,0,1,1.57-1.57h13V26a3,3,0,0,0,3,3h6.75V51.93A1.57,1.57,0,0,1,47,53.5Z"/><path class="cls-4" d="M42.25,31.45H30.5a.73.73,0,0,0,0,1.47H42.25a.73.73,0,0,0,0-1.47Z"/><path class="cls-4" d="M42.25,36.73H30.5a.73.73,0,0,0,0,1.47H42.25a.73.73,0,0,0,0-1.47Z"/><path class="cls-4" d="M42.25,42H30.5a.73.73,0,0,0,0,1.47H42.25a.73.73,0,0,0,0-1.47Z"/><path class="cls-4" d="M38.43,47.3H30.5a.73.73,0,0,0,0,1.47h7.94a.73.73,0,1,0,0-1.47Z"/></g></g></svg>