<svg xmlns="http://www.w3.org/2000/svg" viewBox="0 0 72.75 72.75"><defs><style>.cls-1{fill:#fff;}.cls-2{fill:#cd2b25;}.cls-3{fill:#213461;}.cls-4{fill:#213460;}.cls-5{fill:none;stroke:#213460;stroke-miterlimit:10;opacity:0.19;}</style></defs><title>3</title><g id="Слой_2" data-name="Слой 2"><g id="Слой_1-2" data-name="Слой 1"><circle class="cls-1" cx="36.38" cy="36.38" r="36.38"/><path class="cls-2" d="M50.74,44.07a8.84,8.84,0,0,1-8.82-8.83.72.72,0,0,1,.71-.71H58.85a.72.72,0,0,1,.72.71,8.84,8.84,0,0,1-8.83,8.83ZM43.39,36A7.39,7.39,0,0,0,58.1,36Zm0,0"/><path class="cls-2" d="M50.74,44.32a9.09,9.09,0,0,1-9.07-9.08,1,1,0,0,1,1-1H58.85a1,1,0,0,1,1,1A9.09,9.09,0,0,1,50.74,44.32Zm-8.11-9.54a.46.46,0,0,0-.46.46,8.57,8.57,0,1,0,17.15,0,.47.47,0,0,0-.47-.46Zm8.11,8.11a7.61,7.61,0,0,1-7.6-6.9l0-.27H58.38l0,.27A7.62,7.62,0,0,1,50.74,42.89Zm-7.08-6.68a7.2,7.2,0,0,0,7.08,6.18,7.12,7.12,0,0,0,7.08-6.18Z"/><path class="cls-2" d="M42.63,36a.68.68,0,0,1-.33-.08.71.71,0,0,1-.3-1l8.1-15.54a.75.75,0,0,1,1.27,0l8.11,15.54a.71.71,0,0,1-.3,1,.73.73,0,0,1-1-.31L50.74,21.26,43.27,35.57a.72.72,0,0,1-.64.39Zm0,0"/><path class="cls-2" d="M42.63,36.21a1,1,0,0,1-.92-.67,1,1,0,0,1,.06-.74l8.1-15.54a1,1,0,0,1,.86-.49h0a.94.94,0,0,1,.85.49L59.71,34.8a1,1,0,0,1,.07.74,1,1,0,0,1-.47.56A1,1,0,0,1,58,35.69L50.74,21.8,43.49,35.69A1,1,0,0,1,42.63,36.21Zm8.11-16.94a.47.47,0,0,0-.42.22L42.23,35a.47.47,0,0,0,0,.36.46.46,0,0,0,.23.27.46.46,0,0,0,.63-.2l7.7-14.74,7.69,14.74a.48.48,0,0,0,.63.2.45.45,0,0,0,.22-.27.47.47,0,0,0,0-.36L51.16,19.49a.45.45,0,0,0-.41-.22Z"/><path class="cls-2" d="M21.15,48.7a8.83,8.83,0,0,1-8.82-8.82.72.72,0,0,1,.72-.72H29.25a.72.72,0,0,1,.72.72,8.84,8.84,0,0,1-8.83,8.82Zm-7.35-8.11a7.39,7.39,0,0,0,14.71,0Zm0,0"/><path class="cls-2" d="M21.15,48.95a9.08,9.08,0,0,1-9.07-9.07,1,1,0,0,1,1-1H29.25a1,1,0,0,1,1,1A9.09,9.09,0,0,1,21.15,48.95ZM13,39.41a.47.47,0,0,0-.47.47,8.58,8.58,0,0,0,17.15,0,.47.47,0,0,0-.47-.47Zm8.1,8.11a7.7,7.7,0,0,1-7.6-6.9l0-.27H28.78l0,.27A7.62,7.62,0,0,1,21.15,47.52Zm-7.07-6.68A7.2,7.2,0,0,0,21.15,47a7.12,7.12,0,0,0,7.08-6.18Z"/><path class="cls-2" d="M29.25,40.59a.72.72,0,0,1-.64-.38L21.15,25.89,13.67,40.2a.71.71,0,0,1-1.27-.66L20.52,24a.74.74,0,0,1,1.27,0l8.11,15.53a.71.71,0,0,1-.3,1,.72.72,0,0,1-.33.08Zm0,0"/><path class="cls-2" d="M29.25,40.84a1,1,0,0,1-.86-.51l-7.25-13.9L13.9,40.32a1,1,0,0,1-.56.47,1,1,0,0,1-1.15-1.37l8.11-15.53a1,1,0,0,1,1.71,0l8.11,15.53a1,1,0,0,1,.07.74,1,1,0,0,1-.47.56A1,1,0,0,1,29.25,40.84ZM21.15,25.35l7.69,14.74a.47.47,0,0,0,.63.19A.45.45,0,0,0,29.7,40a.47.47,0,0,0,0-.36L21.56,24.13a.47.47,0,0,0-.82,0L12.63,39.66a.47.47,0,0,0,.55.66.46.46,0,0,0,.27-.23Z"/><path class="cls-3" d="M40.34,21.72a.71.71,0,0,1-.12-1.42L55.7,17.71a.72.72,0,1,1,.24,1.41L40.46,21.71Zm0,0"/><path class="cls-3" d="M40.34,22a1,1,0,0,1-1-.81.94.94,0,0,1,.16-.71,1,1,0,0,1,.63-.4l15.48-2.59A1,1,0,1,1,56,19.37L40.5,22Zm15.48-4h-.08L40.26,20.54a.46.46,0,0,0-.31.19.45.45,0,0,0-.08.34.44.44,0,0,0,.48.39h.06L55.9,18.88a.47.47,0,0,0-.08-.92Z"/><path class="cls-3" d="M16.07,25.77A.72.72,0,0,1,16,24.34l15.6-2.6a.71.71,0,0,1,.82.59.72.72,0,0,1-.59.82l-15.6,2.6Zm0,0"/><path class="cls-3" d="M16.07,26a1,1,0,0,1-1-.81.94.94,0,0,1,.17-.72,1,1,0,0,1,.62-.39l15.61-2.6a1,1,0,0,1,1.11.79,1,1,0,0,1-.79,1.11L16.23,26Zm15.61-4H31.6L16,24.59a.48.48,0,0,0-.3.19.45.45,0,0,0-.08.34.47.47,0,0,0,.46.4h.07l15.61-2.6a.47.47,0,0,0,.38-.54.46.46,0,0,0-.19-.3A.45.45,0,0,0,31.68,22Z"/><path class="cls-3" d="M35.94,26.82A5.09,5.09,0,1,1,41,21.73a5.09,5.09,0,0,1-5.09,5.09Zm0-8.74a3.65,3.65,0,1,0,3.66,3.66,3.66,3.66,0,0,0-3.66-3.66Zm0,0"/><path class="cls-3" d="M35.94,27.07a5.34,5.34,0,1,1,5.34-5.34A5.34,5.34,0,0,1,35.94,27.07Zm0-10.17a4.84,4.84,0,1,0,4.84,4.83A4.84,4.84,0,0,0,35.94,16.9Zm0,8.74a3.9,3.9,0,1,1,3.91-3.9A3.9,3.9,0,0,1,35.94,25.64Zm0-7.3a3.4,3.4,0,1,0,3.41,3.41A3.41,3.41,0,0,0,35.94,18.33Z"/><path class="cls-3" d="M35.94,53.74a.72.72,0,0,1-.71-.72V26.1a.72.72,0,0,1,1.43,0V53a.72.72,0,0,1-.72.72Zm0,0"/><path class="cls-3" d="M35.94,54a1,1,0,0,1-1-1V26.1a1,1,0,0,1,1.93,0V53A1,1,0,0,1,35.94,54Zm0-28.35a.46.46,0,0,0-.46.46V53a.47.47,0,1,0,.93,0V26.1A.47.47,0,0,0,35.94,25.64Z"/><path class="cls-3" d="M35.94,18.08a.71.71,0,0,1-.71-.71V15.63a.72.72,0,0,1,1.43,0v1.74a.71.71,0,0,1-.72.71Zm0,0"/><path class="cls-3" d="M35.94,18.33a1,1,0,0,1-1-1V15.63a1,1,0,0,1,1.93,0v1.74A1,1,0,0,1,35.94,18.33Zm0-3.17a.46.46,0,0,0-.46.46v1.74a.47.47,0,0,0,.93,0V15.63A.47.47,0,0,0,35.94,15.17Z"/><path class="cls-3" d="M45.39,53.74H26.5a.72.72,0,0,1,0-1.43H45.39a.72.72,0,1,1,0,1.43Zm0,0"/><path class="cls-4" d="M45.39,54H26.5a1,1,0,0,1,0-1.93H45.39a1,1,0,1,1,0,1.93ZM26.5,52.55a.47.47,0,0,0,0,.93H45.39a.47.47,0,1,0,0-.93Z"/><circle class="cls-5" cx="36.38" cy="36.38" r="33.13"/></g></g></svg>