<svg xmlns="http://www.w3.org/2000/svg" viewBox="0 0 72.75 72.75"><defs><style>.cls-1{fill:#fff;}.cls-2{fill:#213461;}.cls-2,.cls-4{stroke:#213460;}.cls-2,.cls-3,.cls-4{stroke-miterlimit:10;}.cls-2,.cls-3{stroke-width:0.5px;}.cls-3{fill:#cd2b25;stroke:#cd2b25;}.cls-4{fill:none;opacity:0.19;}</style></defs><title>2</title><g id="Слой_2" data-name="Слой 2"><g id="Слой_1-2" data-name="Слой 1"><circle class="cls-1" cx="36.38" cy="36.38" r="36.38"/><path class="cls-2" d="M56.49,33.12H54.62V24.5a3.75,3.75,0,0,0-3.75-3.75H48.33l-2.6-4.67a2.25,2.25,0,0,0-3.06-.87l-10,5.54H21.57a3.75,3.75,0,0,0-3.75,3.75V50.24A3.75,3.75,0,0,0,21.57,54h29.3a3.75,3.75,0,0,0,3.75-3.75V42.68h1.87ZM50.87,22.25a2.24,2.24,0,0,1,2.22,2H50.28l-1.11-2ZM43.4,16.52a.76.76,0,0,1,1,.29l4.14,7.44H29.5Zm9.71,33.72a2.25,2.25,0,0,1-2.25,2.25H21.57a2.25,2.25,0,0,1-2.25-2.25V24.5a2.25,2.25,0,0,1,2.25-2.25H30l-3.6,2H22a.75.75,0,1,0,0,1.5H53.12v7.37H47.64A4.62,4.62,0,0,0,43,37.74v.32a4.62,4.62,0,0,0,4.62,4.62h5.48ZM55,41.18H47.64a3.12,3.12,0,0,1-3.12-3.12v-.32a3.12,3.12,0,0,1,3.12-3.12H55ZM49.93,38"/><circle class="cls-3" cx="48.02" cy="37.91" r="1.4"/><circle class="cls-4" cx="36.38" cy="36.38" r="33.13"/></g></g></svg>