<svg xmlns="http://www.w3.org/2000/svg" viewBox="0 0 215.25 268.33"><defs><style>.cls-1{fill:#cd2b25;stroke:#ce2b25;}.cls-1,.cls-2{stroke-miterlimit:10;stroke-width:3px;}.cls-2{fill:#213461;stroke:#213460;}</style></defs><title>kazhd</title><g id="Слой_2" data-name="Слой 2"><g id="Слой_1-2" data-name="Слой 1"><path class="cls-1" d="M174,112.05H63.4a4.43,4.43,0,0,0,0,8.86H174a4.43,4.43,0,0,0,0-8.86Zm0,0"/><path class="cls-1" d="M63.4,85.52h44.22a4.41,4.41,0,1,0,0-8.83H63.4a4.41,4.41,0,1,0,0,8.83Zm0,0"/><path class="cls-1" d="M174,147.42H63.4a4.43,4.43,0,0,0,0,8.86H174a4.43,4.43,0,1,0,0-8.86Zm0,0"/><path class="cls-1" d="M174,182.81H63.4a4.41,4.41,0,1,0,0,8.83H174a4.41,4.41,0,1,0,0-8.83Zm0,0"/><path class="cls-1" d="M174,218.18H63.4a4.43,4.43,0,0,0,0,8.86H174a4.43,4.43,0,1,0,0-8.86Zm0,0"/><path class="cls-2" d="M191.64,66V1.5H1.5V244.72H23.61v22.11H213.75V88.11ZM151.85,38.7l46.81,46.81H151.85ZM10.33,235.86V10.36H182.81V57.16L149.25,23.61H23.61V235.86ZM32.44,258V32.47H143v61.9h61.93V258Zm0,0"/></g></g></svg>