<svg xmlns="http://www.w3.org/2000/svg" xmlns:xlink="http://www.w3.org/1999/xlink" viewBox="0 0 386.96 386.96"><defs><style>.cls-1{fill:none;}.cls-2{fill:#fff;stroke:#1d1d1b;stroke-miterlimit:10;}.cls-3{clip-path:url(#clip-path);}.cls-4{fill:#cd2b25;}</style><clipPath id="clip-path"><rect class="cls-1" y="0.38" width="386.58" height="388.12"/></clipPath></defs><title>mail_icon</title><g id="Слой_2" data-name="Слой 2"><g id="Слой_1-2" data-name="Слой 1"><circle class="cls-2" cx="183.93" cy="196.75" r="177"/><g class="cls-3"><path class="cls-4" d="M193.47,0C86.63,0,0,86.63,0,193.48S86.63,387,193.47,387,387,300.33,387,193.48,300.33,0,193.47,0Zm0,68L308,139.36H79ZM309.4,253.36h0a20.72,20.72,0,0,1-20.73,20.73H98.3a20.73,20.73,0,0,1-20.73-20.73V143.9a20.78,20.78,0,0,1,.33-3.55l109.39,68.22c.13.08.28.14.42.21l.44.23a11.31,11.31,0,0,0,2.39.93l.25.06a12,12,0,0,0,2.7.34h0a11.67,11.67,0,0,0,2.7-.34l.25-.06a11.39,11.39,0,0,0,2.38-.93l.44-.23c.13-.08.28-.13.42-.21l109.39-68.22a20.58,20.58,0,0,1,.33,3.55Zm0,0"/></g></g></g></svg>