<svg xmlns="http://www.w3.org/2000/svg" viewBox="0 0 209.31 212.74"><defs><style>.cls-1{fill:#213461;}.cls-2{fill:#cd2b25;}</style></defs><title>ne_otkaz</title><g id="Слой_2" data-name="Слой 2"><g id="Слой_1-2" data-name="Слой 1"><path class="cls-1" d="M143.57,84v25.25a5.33,5.33,0,1,0,10.66,0V73.35Zm-25.93,25.93a5.33,5.33,0,0,0,10.61-.68V99.33Zm59.07-59.07-7.77,7.77a7.65,7.65,0,0,1,.61,3v90.93a46.69,46.69,0,0,1-46.63,46.64H98c-17.76,0-34.41-8.92-45.46-24.13l-7.61,7.61c13,17.15,32.38,27.18,53.07,27.18h24.95a57.36,57.36,0,0,0,57.29-57.3V61.63A18.19,18.19,0,0,0,176.71,50.87Zm-33.14,58.39a5.33,5.33,0,1,0,10.66,0V73.35L143.57,84ZM15.66,113.59a7.55,7.55,0,0,1,5.21-7,7.86,7.86,0,0,1,9,2.88l22,21a13.89,13.89,0,0,0,10.93,4.7l13.5-13.5c0-.17,0-.33,0-.5V35.64a7.66,7.66,0,0,1,15.33,0v70.64l10.66-10.66V18.32a7.66,7.66,0,1,1,15.32,0v62l10.66-10.66v-34a7.66,7.66,0,1,1,15.32,0V54.32l10.66-10.66v-8a18.32,18.32,0,0,0-26-16.64v-.68a18.32,18.32,0,0,0-36.64,0V19a18,18,0,0,0-7.67-1.69A18.34,18.34,0,0,0,65.62,35.64v85.48a3.22,3.22,0,0,1-2.15,3.12,3.45,3.45,0,0,1-4-1.22L37.82,102.39a18.31,18.31,0,0,0-30.57,20l26.06,42.22L41,156.85,16.51,117.11A7.74,7.74,0,0,1,15.66,113.59Zm102-3.65a5.33,5.33,0,0,0,10.61-.68V99.33Z"/><path class="cls-2" d="M6,212.74A6,6,0,0,1,1.76,202.5L199.07,5.19a6,6,0,0,1,8.48,8.49L10.24,211A6,6,0,0,1,6,212.74Z"/></g></g></svg>