<svg xmlns="http://www.w3.org/2000/svg" xmlns:xlink="http://www.w3.org/1999/xlink" viewBox="0 0 278.46 277.83"><defs><style>.cls-1{fill:none;}.cls-2{clip-path:url(#clip-path);}.cls-3{fill:#213461;}</style><clipPath id="clip-path" transform="translate(0 -0.73)"><rect class="cls-1" width="278.88" height="279.84"/></clipPath></defs><title>phone_icon2</title><g id="Слой_2" data-name="Слой 2"><g id="Режим_изоляции" data-name="Режим изоляции"><g class="cls-2"><path class="cls-3" d="M272.22,220.49l-43-43c-8.57-8.53-22.75-8.27-31.61.59l-21.67,21.66-4.27-2.38c-13.68-7.58-32.41-18-52.11-37.69s-30.16-38.51-37.77-52.21c-.8-1.45-1.57-2.85-2.33-4.18L94,88.76l7.15-7.16c8.88-8.88,9.12-23.06.57-31.62l-43-43C50.17-1.57,36-1.31,27.1,7.57L15,19.76l.33.33a70.19,70.19,0,0,0-10,17.62A73.13,73.13,0,0,0,.88,55.57c-5.68,47.07,15.83,90.1,74.22,148.48,80.7,80.7,145.73,74.6,148.54,74.3a72.78,72.78,0,0,0,17.92-4.5,70,70,0,0,0,17.55-9.94l.27.23,12.28-12c8.86-8.88,9.12-23.06.57-31.63Zm0,0" transform="translate(0 -0.73)"/></g></g></g></svg>