<svg xmlns="http://www.w3.org/2000/svg" viewBox="0 0 218.37 218.33"><defs><style>.cls-1{fill:#fff;}</style></defs><title>phone</title><g id="Слой_2" data-name="Слой 2"><g id="Слой_1-2" data-name="Слой 1"><path class="cls-1" d="M211.67,198.27l-15.54,15.55c-2.77,2.76-10.89,4.5-11.15,4.5A183.31,183.31,0,0,1,0,32.92S1.79,25,4.56,22.26L20.1,6.73C25.79,1,36.71-1.57,44.37,1l3.26,1.09c7.63,2.56,15.64,11,17.75,18.77L73.2,49.53c2.11,7.8-.74,18.89-6.42,24.57L56.4,84.48A110.26,110.26,0,0,0,133.9,162l10.37-10.39c5.72-5.71,16.8-8.55,24.58-6.45L197.53,153c7.78,2.14,16.21,10.1,18.77,17.72l1.09,3.32C219.92,181.69,217.36,192.61,211.67,198.27Z"/></g></g></svg>