<svg xmlns="http://www.w3.org/2000/svg" viewBox="0 0 13.4 20.62"><defs><style>.cls-1{fill:#fff;}</style></defs><title>question</title><g id="Слой_2" data-name="Слой 2"><g id="Слой_1-2" data-name="Слой 1"><path class="cls-1" d="M7.5,18.42H5.9a.26.26,0,0,0-.3.29v1.61a.27.27,0,0,0,.3.3H7.5a.27.27,0,0,0,.3-.3V18.71A.26.26,0,0,0,7.5,18.42Z"/><path class="cls-1" d="M6.7,0A6.71,6.71,0,0,0,0,6.7,5.55,5.55,0,0,0,.07,7.8.24.24,0,0,0,.19,8,.6.6,0,0,0,.54,8L2,7.58a.29.29,0,0,0,.19-.1.31.31,0,0,0,0-.19V6.7A4.46,4.46,0,0,1,6.7,2.2a4.46,4.46,0,0,1,4.5,4.5c0,1.55-.91,2.32-2.28,3.47l-.22.18C7.4,11.42,6,12.62,5.6,14.7a.25.25,0,0,0,0,.19A.39.39,0,0,0,5.9,15H7.5a.31.31,0,0,0,.32-.24A5.17,5.17,0,0,1,10.16,12C11.6,10.84,13.4,9.42,13.4,6.7A6.71,6.71,0,0,0,6.7,0Z"/></g></g></svg>