<svg xmlns="http://www.w3.org/2000/svg" viewBox="0 0 382.92 217.64"><defs><style>.cls-1{fill:#213461;stroke:#213460;}.cls-1,.cls-2{stroke-miterlimit:10;stroke-width:4px;}.cls-2{fill:#cd2b25;stroke:#ce2b25;}</style></defs><title>specialists</title><g id="Слой_2" data-name="Слой 2"><g id="Слой_1-2" data-name="Слой 1"><path class="cls-1" d="M374,175.85a248,248,0,0,0-40.13-26.25l-1.87-1V123.73l1-1a18.06,18.06,0,0,0,5.1-12.54V80A31.58,31.58,0,0,0,306.5,48.48H300A31.72,31.72,0,0,0,268.48,80.1v30.16a18.06,18.06,0,0,0,5.1,12.54l1,1v11.65a4.42,4.42,0,1,0,8.84,0V121.54a4.45,4.45,0,0,0-2-3.65,9.07,9.07,0,0,1-4.12-7.63V80.1A22.72,22.72,0,0,1,300,57.4h6.48a22.72,22.72,0,0,1,22.7,22.7v30.16a9.09,9.09,0,0,1-4.15,7.65,4.28,4.28,0,0,0-1.93,3.63v29a5.86,5.86,0,0,0,3.23,5.17,236.52,236.52,0,0,1,42,26.92,10.18,10.18,0,0,1,3.68,7.91V206.8h-59a4.42,4.42,0,0,0,0,8.84H376.5a4.37,4.37,0,0,0,4.42-4.42V190.58A18.93,18.93,0,0,0,374,175.85Z"/><path class="cls-1" d="M82.9,48.56H76.42A31.58,31.58,0,0,0,44.88,80.1v30.16A18.06,18.06,0,0,0,50,122.8l1,1V148.7l-1.88,1A240.12,240.12,0,0,0,9,175.92a19.14,19.14,0,0,0-7,14.74v20.56a4.37,4.37,0,0,0,4.42,4.42h64.4a4.42,4.42,0,0,0,0-8.84h-60V190.58a10.31,10.31,0,0,1,3.64-7.88,227.06,227.06,0,0,1,42.14-27,5.72,5.72,0,0,0,3.18-5.15v-29a4.45,4.45,0,0,0-2-3.65,9,9,0,0,1-4.12-7.63V80.1a22.72,22.72,0,0,1,22.7-22.7H82.9a22.72,22.72,0,0,1,22.7,22.7v30.16a9.08,9.08,0,0,1-4.16,7.66,4.27,4.27,0,0,0-1.92,3.62V136.1a4.42,4.42,0,0,0,8.84,0V123.81l1-1a18.06,18.06,0,0,0,5.11-12.54V80.1A31.58,31.58,0,0,0,82.9,48.56Z"/><path class="cls-2" d="M283.48,166.49c-21.44-17.59-44.19-30-53-34.48l-1.9-1V97.38l1.11-1a21.73,21.73,0,0,0,6.81-15.84v-39A39.59,39.59,0,0,0,197,2h-8.4A39.59,39.59,0,0,0,149,41.54v39a21.91,21.91,0,0,0,6.77,15.88l1.07,1V131l-1.9,1c-8.88,4.55-31.8,17-53,34.47a23.19,23.19,0,0,0-8.49,18v26.72a4.37,4.37,0,0,0,4.42,4.42h189.6a4.37,4.37,0,0,0,4.42-4.42V184.5A23.18,23.18,0,0,0,283.48,166.49Zm-.28,40.31H102.44V184.5a14.38,14.38,0,0,1,5.29-11.2c23-18.91,47.59-31.62,54.58-35.06a6.25,6.25,0,0,0,3.49-5.5V95.14a4.45,4.45,0,0,0-2-3.65A13.18,13.18,0,0,1,158,80.58v-39a30.73,30.73,0,0,1,30.7-30.7h8.4a30.73,30.73,0,0,1,30.7,30.7v39a13,13,0,0,1-5.92,10.94,4.27,4.27,0,0,0-1.92,3.62v37.6a6.15,6.15,0,0,0,3.47,5.49c7.09,3.55,31.88,16.51,54.52,35.08a14.35,14.35,0,0,1,5.29,11.19Z"/></g></g></svg>