<svg xmlns="http://www.w3.org/2000/svg" viewBox="0 0 366.82 338.07"><defs><style>.cls-1{fill:#fff;}</style></defs><title>wallet_icon</title><g id="Слой_2" data-name="Слой 2"><g id="Режим_изоляции" data-name="Режим изоляции"><path class="cls-1" d="M269.35,260.79a31.91,31.91,0,0,1-31.88-31.88V176a31.91,31.91,0,0,1,31.88-31.88h83.06c.5,0,1,0,1.5,0V91.4a24.58,24.58,0,0,0-24.58-24.58H24.58A24.58,24.58,0,0,0,0,91.39v222.1a24.58,24.58,0,0,0,24.58,24.58H329.34a24.58,24.58,0,0,0,24.58-24.58V260.75c-.5,0-1,0-1.5,0Zm0,0"/><path class="cls-1" d="M352.41,161.57H269.35A14.41,14.41,0,0,0,254.94,176v52.94a14.41,14.41,0,0,0,14.41,14.41h83.06a14.41,14.41,0,0,0,14.41-14.41V176a14.41,14.41,0,0,0-14.41-14.41ZM298,223.24a20.8,20.8,0,1,1,20.8-20.8,20.8,20.8,0,0,1-20.8,20.8Zm0,0"/><path class="cls-1" d="M286.53,21.79A31.74,31.74,0,0,0,246.44,1.61L121.57,42.87H293.5Zm0,0"/></g></g></svg>