<svg xmlns="http://www.w3.org/2000/svg" viewBox="0 0 294.4 268.52"><defs><style>.cls-1{fill:#213461;stroke:#fff;stroke-miterlimit:10;stroke-width:4px;}.cls-2{fill:#cd2b25;}</style></defs><title>3_2</title><g id="Слой_2" data-name="Слой 2"><g id="Слой_1-2" data-name="Слой 1"><path class="cls-1" d="M257.83,2H147.5c-19.19,0-35.1,15.41-35.1,34.6V85.2H37A35.05,35.05,0,0,0,2,120.07v81C2,220.3,17.79,235.6,37,235.6h101.5l31.57,29a7.25,7.25,0,0,0,4.86,2,7,7,0,0,0,2.85-.57A7.1,7.1,0,0,0,182,259.4V174.65a7.2,7.2,0,1,0-14.4,0v68.43l-21.52-19.84a7.26,7.26,0,0,0-4.81-2H37A20.31,20.31,0,0,1,16.4,201.11v-81A20.64,20.64,0,0,1,37,99.6H112.4v76.33a7.37,7.37,0,0,0,12.28,5.32l26.41-24.07,1.89-1.72c1.43-1.32,2.91-2.67,3.51-3.07.58-.06,2.06,0,3.38,0s2.76,0,4.58,0h93.38a34.61,34.61,0,0,0,34.57-34.76v-81A34.47,34.47,0,0,0,257.83,2ZM278,117.64A20.2,20.2,0,0,1,257.83,138H164.45c-1.7,0-3.11,0-4.28,0-8.62-.18-10.32.79-16.92,6.89-.55.5-1.31,1.06-2,1.68L126.8,159.62V36.6c0-11.24,9.45-20.2,20.7-20.2H257.83A20.07,20.07,0,0,1,278,36.6Z"/><path class="cls-2" d="M224.18,64.36c0,8.8-6.41,14.15-11.08,18.07-1.77,1.49-5.07,4.2-5.06,5.22a7.09,7.09,0,0,1-7.14,7.15h-.06a7.11,7.11,0,0,1-7.19-7c-.07-7.8,5.63-12.46,10.2-16.3,3.59-3,5.94-5.13,5.94-7.07a7.13,7.13,0,0,0-14.25,0,7.2,7.2,0,1,1-14.4,0,21.52,21.52,0,0,1,43,0Z"/><path class="cls-2" d="M201,101.45a7.06,7.06,0,0,0-7,7.2v.05a7,7,0,0,0,7,7.17,7.21,7.21,0,0,0,0-14.43Z"/><path class="cls-2" d="M55.91,151.6a7.2,7.2,0,0,0,0,14.4h.6a7.2,7.2,0,1,0,0-14.4Z"/><path class="cls-2" d="M80.94,151.6a7.2,7.2,0,1,0,0,14.4h.6a7.2,7.2,0,0,0,0-14.4Z"/></g></g></svg>