<svg xmlns="http://www.w3.org/2000/svg" viewBox="0 0 262.14 262.48"><defs><style>.cls-1{fill:#213461;}.cls-2{fill:#cd2b25;}</style></defs><title>2_2</title><g id="Слой_2" data-name="Слой 2"><g id="Слой_1-2" data-name="Слой 1"><path class="cls-1" d="M258.91,159.75A129.89,129.89,0,0,0,223.65,38.38,128.88,128.88,0,0,0,180.81,9.86,131.72,131.72,0,0,0,134.22,0V10.42a121.19,121.19,0,0,1,82.39,35.15,119.25,119.25,0,0,1,30.52,51.86A120.73,120.73,0,0,1,249.22,157a118.21,118.21,0,0,1-26.76,53.22l-2.09,2.4-20-19.65v45.75l46.67.72-19.63-19.62,1.87-2.12A129.93,129.93,0,0,0,258.91,159.75Z"/><path class="cls-2" d="M45.69,216.92A119.32,119.32,0,0,1,14.87,165.2a120.64,120.64,0,0,1-2-59.52A118.75,118.75,0,0,1,39.83,52.31l2.11-2.41L62,69.79v-46l-46.67-.48L34.78,42.71l-1.87,2.12A130.77,130.77,0,0,0,5.11,167.65,127.57,127.57,0,0,0,38.5,224.11a129,129,0,0,0,42.83,28.51,132.32,132.32,0,0,0,46.89,9.86V252.35A119.83,119.83,0,0,1,45.69,216.92Z"/></g></g></svg>