<svg xmlns="http://www.w3.org/2000/svg" viewBox="0 0 267.81 267.82"><defs><style>.cls-1{fill:#213461;}.cls-2{fill:#cd2b25;}</style></defs><title>4_2</title><g id="Слой_2" data-name="Слой 2"><g id="Слой_1-2" data-name="Слой 1"><path class="cls-1" d="M267.42,166l-12.33-32.1L267.4,101.8a6,6,0,0,0-1.83-6.85L238.86,73.31l-5.4-34a6,6,0,0,0-5-5l-34-5.4L172.84,2.23A6,6,0,0,0,166,.4L133.9,12.73,101.79.41A6.12,6.12,0,0,0,99.62,0,6,6,0,0,0,95,2.24L73.32,29l-34,5.4a6,6,0,0,0-5,5l-5.4,34L2.24,95A6,6,0,0,0,.41,101.8l12.31,32.11L.4,166a6,6,0,0,0,1.83,6.83l26.72,21.64,5.4,34a6,6,0,0,0,5,5l34,5.4L95,265.57a6,6,0,0,0,6.83,1.84L133.9,255.1,166,267.41a6.16,6.16,0,0,0,2.16.39,6,6,0,0,0,4.69-2.22l21.64-26.72,34-5.4a6,6,0,0,0,5-5l5.4-34,26.71-21.64A6,6,0,0,0,267.42,166ZM243,136.07l11.58,30.17-25.13,20.33a6,6,0,0,0-2.15,3.73l-5.08,31.93-31.92,5.07a6.06,6.06,0,0,0-3.74,2.16l-20.3,25.12L136.08,243a6.15,6.15,0,0,0-4.33,0l-30.17,11.58L81.24,229.46a6,6,0,0,0-3.73-2.16l-31.93-5.07-5.07-31.92a6,6,0,0,0-2.16-3.74L13.22,166.25,24.8,136.08a5.94,5.94,0,0,0,0-4.31l-11.56-30.2L38.35,81.23a6,6,0,0,0,2.16-3.73l5.07-31.92L77.5,40.5a6,6,0,0,0,3.74-2.16l20.32-25.11,30.17,11.58a5.94,5.94,0,0,0,4.31,0l30.17-11.58,20.34,25.13a6,6,0,0,0,3.73,2.16l31.92,5.07,5.08,31.92a6,6,0,0,0,2.16,3.74l25.12,20.33L243,131.75A6.07,6.07,0,0,0,243,136.07Z"/><path class="cls-2" d="M108.33,68.21A23.07,23.07,0,1,0,131.4,91.29,23.1,23.1,0,0,0,108.33,68.21Zm0,34.1a11,11,0,1,1,11-11A11,11,0,0,1,108.33,102.31Z"/><path class="cls-2" d="M159.47,153.46a23.07,23.07,0,1,0,23.08,23.07A23.1,23.1,0,0,0,159.47,153.46Zm0,34.1a11,11,0,1,1,11-11A11,11,0,0,1,159.47,187.56Z"/><path class="cls-2" d="M182.47,73.26a6,6,0,0,0-10.83-2.51L86.39,190.09a6,6,0,1,0,9.79,7L181.43,77.74A5.94,5.94,0,0,0,182.47,73.26Z"/></g></g></svg>