<svg xmlns="http://www.w3.org/2000/svg" viewBox="0 0 279.33 269.36"><defs><style>.cls-1{fill:#213461;}.cls-2{fill:#cd2b25;}</style></defs><title>1_2</title><g id="Слой_2" data-name="Слой 2"><g id="Слой_1-2" data-name="Слой 1"><path class="cls-1" d="M273.33,0H66.77a6,6,0,0,0-6,6V125.28H6a6,6,0,0,0-6,6V233a36.42,36.42,0,0,0,36.38,36.38H242.94A36.42,36.42,0,0,0,279.33,233V6a6,6,0,0,0-6-6ZM12,233v-95.7H60.77V233A24.38,24.38,0,0,1,12,233Zm255.33,0a24.41,24.41,0,0,1-24.39,24.38H63.36A36.24,36.24,0,0,0,72.77,233V12H267.33Zm0,0"/><path class="cls-2" d="M161.62,69.3h76.9a6,6,0,0,0,0-12h-76.9a6,6,0,0,0,0,12Zm0,0"/><path class="cls-2" d="M161.62,135.22h76.9a6,6,0,0,0,0-12h-76.9a6,6,0,0,0,0,12Zm0,0"/><path class="cls-2" d="M161.62,201.13h76.9a6,6,0,0,0,0-12h-76.9a6,6,0,0,0,0,12Zm0,0"/><path class="cls-2" d="M106.25,76.05a6,6,0,0,0,4.36,1.88h.05A6,6,0,0,0,115,76l33-36.1a6,6,0,1,0-8.86-8.09l-28.6,31.32-8.9-9.43a6,6,0,0,0-8.73,8.24Zm0,0"/><path class="cls-2" d="M139.14,100.57l-28.6,31.32-8.91-9.43a6,6,0,0,0-8.72,8.24l13.34,14.13a6,6,0,0,0,4.36,1.88h.05a6,6,0,0,0,4.38-2l33-36.09a6,6,0,0,0-8.86-8.09Zm0,0"/><path class="cls-2" d="M139.14,169.35l-28.6,31.32-8.91-9.43a6,6,0,1,0-8.72,8.24l13.34,14.12a6,6,0,0,0,4.36,1.88h.05a6,6,0,0,0,4.38-2l33-36.1a6,6,0,0,0-8.86-8.09Zm0,0"/></g></g></svg>