<svg xmlns="http://www.w3.org/2000/svg" viewBox="0 0 41.8 43.37"><defs><style>.cls-1{fill:#fff;stroke:#fff;stroke-miterlimit:10;}</style></defs><title>zoom</title><g id="Слой_2" data-name="Слой 2"><g id="Слой_1-2" data-name="Слой 1"><path class="cls-1" d="M22.9,16.5H18.1V11.7a.8.8,0,0,0-1.6,0v4.8H11.7a.8.8,0,0,0,0,1.6h4.8v4.8a.8.8,0,0,0,1.6,0V18.1h4.8a.8.8,0,0,0,0-1.6Zm0,0"/><path class="cls-1" d="M41.08,41.52,29.19,29.16A16.82,16.82,0,1,0,28,30.24L39.92,42.63a.79.79,0,0,0,.58.24.8.8,0,0,0,.58-1.35ZM2.1,17.3A15.2,15.2,0,1,1,17.3,32.5,15.21,15.21,0,0,1,2.1,17.3Zm0,0"/></g></g></svg>